<svg version="1.1" xmlns="http://www.w3.org/2000/svg" xmlns:xlink="http://www.w3.org/1999/xlink" width="1368" height="1829"><desc>title%20Lab%206%0A%0AUser-%3EApplication%3ARegister%0A%0A%0A%0Adatabase%20%23blue%3A1%20Database%20%23red%0AApplication-%3EDatabase%3ACreate%0ADatabase-%3EDatabase%3A%20Invoke%0ADatabase--%3EApplication%3ANew%20User%20Created%0A%0Apar%20Till%20User%20Search%0AUser-%3EApplication%3ASearch%20Pizza%0AApplication-%3EDatabase%3ALookup%20Pizza%0ADatabase-%3EDatabase%3ASearch%0ADatabase--%3EApplication%3A%20Return%20Result%0Aend%0A%0Aparticipant%20Payment%20Gateway%0Aparticipant%20Pizza%20Shop%0Aparticipant%20Web%20Application%0Aparticipant%20Shop%20Manager%0Aparticipant%20Pizza%20Shop%0A%0A%0AUser-%3EApplication%3A%20Add%20Pizza%20to%20Cart%0AUser-%3EApplication%3A%20Provide%20Delivery%20Address%0A%0AApplication-%3EDatabase%3A%20Store%20Delivery%20Address%20for%20registered%20user%0ADatabase-%3EDatabase%3A%20Store%0ADatabase-%3EApplication%3A%20Stored%20Successfully%0A%0Aalt%20case%201%3A%20Debit%20Card%0AUser-%3EApplication%3ACard%20Holder%20name%2CCard%20Number%2CExpiry%20Date%0AUser-%3EApplication%3AStore%20Payment%20info%20if%20registered%20user%0AApplication-%3EPayment%20Gateway%3AValidate%20information%0APayment%20Gateway-%3EPayment%20Gateway%3A%20Validate%0APayment%20Gateway-%3EApplication%3A%20Payment%20Successful%0Aelse%20case%202%20%3A%20Mkash%0AUser-%3EApplication%3AName%2CMobile%20Number%0AApplication-%3EPayment%20Gateway%3AValidate%20information%0APayment%20Gateway-%3EPayment%20Gateway%3A%20Validate%0APayment%20Gateway-%3EApplication%3A%20Payment%20Successful%0Aend%0A%0AUser-%3EApplication%3APlace%20Order%0AApplication-%3EPizza%20Shop%3A%20Order%20Notification%0APizza%20Shop-%3EDatabase%3A%20Register%20Shop%0ADatabase-%3EDatabase%3A%20Register%0ADatabase-%3EPizza%20Shop%3A%20Added%20Successfully%0A%0AShop%20Manager-%3EWeb%20Application%3A%20View%20Order%0AWeb%20Application-%3EShop%20Manager%3A%20Show%20Orders%0A%0A%0A%0A%0A</desc><defs/><g><g/><g/><g/><g/><g/><g/><g/><g/><g/><g/><g/><g/><g/><g/><g/><g/><g/><g/><g/><g/><g/><g/><g/><g/><g/><g/><g/><g/><g/><g><rect fill="white" stroke="none" x="0" y="0" width="1368" height="1829"/></g><g><text fill="black" stroke="none" font-family="sans-serif" font-size="16.5pt" font-style="normal" font-weight="normal" text-decoration="normal" x="656.5714874661732" y="24.50280495" text-anchor="start" dominant-baseline="alphabetic" xml:space="preserve">Lab 6</text></g><g/><g><path fill="none" stroke="black" paint-order="fill stroke markers" d=" M 73.50841485 128.884754037 L 73.50841485 1829.379417567" stroke-miterlimit="10" stroke-width="1.3612669416666667" stroke-dasharray="12.565541,5.445067766666667"/><path fill="none" stroke="black" paint-order="fill stroke markers" d=" M 407.9421869638021 128.884754037 L 407.9421869638021 1829.379417567" stroke-miterlimit="10" stroke-width="1.3612669416666667" stroke-dasharray="12.565541,5.445067766666667"/><path fill="none" stroke="black" paint-order="fill stroke markers" d=" M 724.4517647416667 128.884754037 L 724.4517647416667 1829.379417567" stroke-miterlimit="10" stroke-width="1.3612669416666667" stroke-dasharray="12.565541,5.445067766666667"/><path fill="none" stroke="black" paint-order="fill stroke markers" d=" M 851.0701083081042 128.884754037 L 851.0701083081042 1829.379417567" stroke-miterlimit="10" stroke-width="1.3612669416666667" stroke-dasharray="12.565541,5.445067766666667"/><path fill="none" stroke="black" paint-order="fill stroke markers" d=" M 999.8211781109011 128.884754037 L 999.8211781109011 1829.379417567" stroke-miterlimit="10" stroke-width="1.3612669416666667" stroke-dasharray="12.565541,5.445067766666667"/><path fill="none" stroke="black" paint-order="fill stroke markers" d=" M 1141.5178350719011 128.884754037 L 1141.5178350719011 1829.379417567" stroke-miterlimit="10" stroke-width="1.3612669416666667" stroke-dasharray="12.565541,5.445067766666667"/><path fill="none" stroke="black" paint-order="fill stroke markers" d=" M 1294.220221708194 128.884754037 L 1294.220221708194 1829.379417567" stroke-miterlimit="10" stroke-width="1.3612669416666667" stroke-dasharray="12.565541,5.445067766666667"/></g><g><path fill="none" stroke="none"/><g><path fill="white" stroke="black" paint-order="fill stroke markers" d=" M 40.308706085906245 84.779705127 L 106.70812361409375 84.779705127 L 106.70812361409375 128.884754037 L 40.308706085906245 128.884754037 L 40.308706085906245 84.779705127 Z" stroke-miterlimit="10" stroke-width="2.613632528" stroke-dasharray=""/></g><g><g/><text fill="black" stroke="none" font-family="sans-serif" font-size="11pt" font-style="normal" font-weight="normal" text-decoration="normal" x="58.032401666406244" y="112.549550737" text-anchor="start" dominant-baseline="alphabetic" xml:space="preserve">User</text></g><path fill="none" stroke="none"/><g><path fill="white" stroke="black" paint-order="fill stroke markers" d=" M 354.35952837060677 84.779705127 L 461.52484555699743 84.779705127 L 461.52484555699743 128.884754037 L 354.35952837060677 128.884754037 L 354.35952837060677 84.779705127 Z" stroke-miterlimit="10" stroke-width="2.613632528" stroke-dasharray=""/></g><g><g/><text fill="black" stroke="none" font-family="sans-serif" font-size="11pt" font-style="normal" font-weight="normal" text-decoration="normal" x="372.0832239511068" y="112.549550737" text-anchor="start" dominant-baseline="alphabetic" xml:space="preserve">Application</text></g><g><path fill="red" stroke="blue" paint-order="fill stroke markers" d=" M 700.6023679236667 96.867755569 L 700.6023679236667 62.563828639 L 748.3011615596666 62.563828639 L 748.3011615596666 96.867755569" stroke-miterlimit="10" stroke-width="2.7769845610000004" stroke-dasharray=""/><path fill="red" stroke="blue" paint-order="fill stroke markers" d=" M 748.3011615596666 61.3713587981 L 748.299969099763 61.47916934301662 L 748.2963918392969 61.58696910696859 L 748.2904301359916 61.69474731006935 L 748.2820845860123 61.8024931745884 L 748.2713560239071 61.91019592602908 L 748.2582455225232 62.017844794206 L 748.2427543929 62.125429014322044 L 748.2248841841374 62.232937828044854 L 748.2046366832413 62.34036048458265 L 748.1820139149452 62.44768624175929 L 748.1570181415068 62.55490436708851 L 748.1296518624828 62.66200413884712 L 748.0999178144782 62.76897484714718 L 748.0678189708731 62.87580579500701 L 748.033358541525 62.982486299420856 L 747.9965399724482 63.08900569242717 L 747.9573669454688 63.19535332217542 L 747.9158433778571 63.30151855399125 L 747.8719734219351 63.40749077143996 L 747.8257614646617 63.5132593773881 L 747.7772121271944 63.618813795063225 L 747.7263302644263 63.724143469111524 L 747.6731209645014 63.82923786665337 L 747.6175895483052 63.93408647833659 L 747.5597415689332 64.03867881938739 L 747.499582811135 64.1430044306588 L 747.4371192907364 64.24705287967667 L 747.3723572540372 64.35081376168277 L 747.3053031771872 64.45427670067541 L 747.2359637655383 64.55743135044686 L 747.1643459529736 64.66026739561813 L 747.0904569012149 64.7627745526704 L 747.0143039991059 64.86494257097338 L 746.9358948618731 64.96676123381039 L 746.855237330365 65.06822035939997 L 746.7723394702675 65.16930980191414 L 746.6872095712977 65.27001945249287 L 746.5998561463742 65.37033924025505 L 746.510287930767 65.47025913330548 L 746.418513881223 65.56976913973813 L 746.3245431750706 65.66885930863528 L 746.228385209302 65.7675197310626 L 746.1300495996339 65.86574054106009 L 746.0295461795452 65.96351191662859 L 745.926884999294 66.06082408071202 L 745.8220763249129 66.15766730217506 L 745.715130637182 66.25403189677627 L 745.6060586305811 66.3499082281365 L 745.4948712122198 66.4452867087025 L 745.3815795007472 66.54015780070569 L 745.2661948252403 66.63451201711595 L 745.1487287240702 66.72833992259025 L 745.0291929437493 66.82163213441623 L 744.9075994377561 66.91437932345046 L 744.7839603653397 67.00657221505134 L 744.6582880903043 67.0982015900065 L 744.5305951797728 67.18925828545483 L 744.4008944029298 67.27973319580266 L 744.2691987297449 67.36961727363435 L 744.1355213296756 67.45890153061701 L 743.9998755703507 67.54757703839935 L 743.8622750162328 67.6356349295045 L 743.7227334272629 67.72306639821673 L 743.5812647574836 67.80986270146201 L 743.4378831536438 67.89601515968236 L 743.2926029537847 67.98151515770375 L 743.1454386858048 68.06635414559763 L 742.9964050660087 68.15052363953589 L 742.8455169976338 68.2340152226393 L 742.6927895693615 68.31682054581911 L 742.5382380538073 68.39893132861202 L 742.3818779059937 68.48033936000816 L 742.2237247618054 68.56103649927225 L 742.0637944364252 68.6410146767576 L 741.902102922752 68.72026589471311 L 741.7386663898027 68.79878222808303 L 741.5735011810941 68.87655582529945 L 741.4066238130098 68.95357890906746 L 741.2380509731473 69.02984377714286 L 741.0677995186502 69.10534280310242 L 740.8958864745221 69.18006843710643 L 740.722329031924 69.25401320665378 L 740.5471445464557 69.32716971732913 L 740.3703505364197 69.39953065354239 L 740.1919646810696 69.47108877926021 L 740.0120048188423 69.54183693872967 L 739.8304889455743 69.61176805719379 L 739.6474352127013 69.68087514159897 L 739.4628619254444 69.74915128129439 L 739.2767875409781 69.81658964872294 L 739.0892306665862 69.88318350010411 L 738.9002100577995 69.94892617610824 L 738.7097446165217 70.01381110252252 L 738.5178533891378 70.07783179090838 L 738.324555564611 70.14098183925032 L 738.1298704725625 70.20325493259614 L 737.9338175813393 70.26464484368842 L 737.7364164960671 70.32514543358717 L 737.5376869566901 70.38475065228383 L 737.3376488359963 70.44345453930622 L 737.1363221376314 70.50125122431453 L 736.9337269940974 70.55813492768844 L 736.7298836647395 70.61409996110503 L 736.5248125337213 70.66914072810756 L 736.3185341079845 70.72325172466522 L 736.1110690152002 70.77642753972344 L 735.9024380017045 70.82866285574504 L 735.6926619304251 70.87995244924193 L 735.4817617787941 70.9302911912975 L 735.269758636651 70.9796740480795 L 735.0566737041333 71.0280960813434 L 734.842528289557 71.07555244892625 L 734.6273438072847 71.12203840523081 L 734.4111417755854 71.16754930170019 L 734.1939438144823 71.21208058728268 L 733.9757716435903 71.25562780888683 L 733.7566470799447 71.29818661182675 L 733.5365920358194 71.33975274025764 L 733.3156285165353 71.38032203760127 L 733.0937786182603 71.41989044696174 L 732.8710645257993 71.45845401153106 L 732.6475085103758 71.49600887498494 L 732.4231329274054 71.5325512818683 L 732.1979602142591 71.56807757797091 L 731.9720128880207 71.60258421069277 L 731.7453135432345 71.63606772939937 L 731.5178848496461 71.66852478576672 L 731.2897495499352 71.69995213411627 L 731.0609304574419 71.73034663173934 L 730.8314504538846 71.7597052392115 L 730.6013324870726 71.78802502069648 L 730.3705995686105 71.81530314423973 L 730.1392747715981 71.84153688205163 L 729.9073812283223 71.86672361078024 L 729.6749421279442 71.8908608117737 L 729.4419807141801 71.913946071332 L 729.2085202829771 71.93597708094846 L 728.9745841801841 71.95695163754044 L 728.7401957992162 71.97686764366978 L 728.5053785787162 71.99572310775245 L 728.2701560002106 72.01351614425778 L 728.0345515857609 72.03024497389691 L 727.7985888956126 72.04590792380084 L 727.562291525838 72.06050342768764 L 727.325683105977 72.07403002601906 L 727.0887872966744 72.08648636614654 L 726.8516277873139 72.09787120244648 L 726.6142282936487 72.1081833964447 L 726.3766125554303 72.11742191693043 L 726.1388043340346 72.12558584005929 L 725.9008274100855 72.13267434944576 L 725.6627055810771 72.13868673624485 L 725.424462658994 72.14362239922286 L 725.1861224679296 72.14748084481762 L 724.9477088417046 72.1502616871878 L 724.7092456214829 72.15196464825142 L 724.4707566533878 72.15258955771385 L 724.2322657861172 72.15213635308466 L 723.9937968685593 72.15060507968391 L 723.7553737474071 72.14799589063767 L 723.5170202647741 72.1443090468627 L 723.2787602558097 72.13954491704027 L 723.0406175463165 72.1337039775794 L 722.8026159503669 72.12678681256918 L 722.5647792679221 72.11879411372033 L 722.3271312824521 72.10972668029609 L 722.0896957585576 72.09958541903224 L 721.8524964395929 72.08837134404646 L 721.6155570452925 72.07608557673689 L 721.3789012693982 72.06272934567005 L 721.1425527772903 72.04830398645788 L 720.9065352036213 72.0328109416243 L 720.6708721499517 72.01625176046089 L 720.4355871823906 71.99862809887196 L 720.2007038292386 71.97994171920898 L 719.9662455786353 71.96019449009434 L 719.7322358762104 71.9393883862345 L 719.498698122739 71.91752548822251 L 719.2656556718022 71.89460798232996 L 719.0331318274505 71.87063816028832 L 718.8011498418746 71.84561841905983 L 718.56973291308 71.81955126059778 L 718.3389041825665 71.79243929159627 L 718.1086867330149 71.7642852232296 L 717.8791035859783 71.73509187088118 L 717.65017769958 71.7048621538619 L 717.421931966218 71.67359909511825 L 717.1943892102754 71.64130582093009 L 716.9675721858381 71.6079855605979 L 716.7415035744197 71.57364164611994 L 716.5162059826927 71.53827751185906 L 716.2917019402286 71.50189669419922 L 716.0680138972447 71.46450283119185 L 715.8451642223588 71.42609966219209 L 715.6231752003526 71.38669102748484 L 715.4020690299436 71.34628086790075 L 715.1818678215642 71.30487322442208 L 714.962593595152 71.26247223777868 L 714.7442682779468 71.21908214803388 L 714.5269137022984 71.17470729416048 L 714.3105516034834 71.12935211360693 L 714.0952036175311 71.08302114185344 L 713.8808912790608 71.0357190119586 L 713.6676360191277 70.987450454096 L 713.4554591630803 70.93822029508118 L 713.244381928427 70.88803345788901 L 713.0344254227156 70.8368949611614 L 712.8256106414217 70.7848099187054 L 712.6179584658494 70.73178353898187 L 712.4114896610432 70.67782112458457 L 712.2062248737116 70.62292807170999 L 712.0021846301621 70.56710986961765 L 711.7993893342491 70.51037210008127 L 711.5978592653333 70.4527204368305 L 711.3976145762537 70.39416064498364 L 711.198675291312 70.33469858047107 L 711.0010613042713 70.27434018944969 L 710.8047923763654 70.2130915077083 L 710.6098881343236 70.15095866006402 L 710.4163680684077 70.08794785974987 L 710.2242515304629 70.02406540779336 L 710.0335577319831 69.95931769238642 L 709.8443057421891 69.89371118824668 L 709.6565144861222 69.82725245596986 L 709.4702027427516 69.7599481413738 L 709.2853891430962 69.69180497483389 L 709.1020921683621 69.62282977060998 L 708.9203301480939 69.55302942616503 L 708.7401212583424 69.4824109214753 L 708.5614835198461 69.41098131833243 L 708.3844347962302 69.3387477596372 L 708.2089927922193 69.26571746868528 L 708.0351750518679 69.19189774844492 L 707.862998956805 69.1172959808266 L 707.6924817244966 69.04191962594494 L 707.523640406524 68.96577622137262 L 707.3564918868781 68.88887338138663 L 707.1910528802717 68.81121879620689 L 707.0273399304675 68.73282023122718 L 706.8653694086242 68.6536855262387 L 706.705157511659 68.573822594646 L 706.5467202606278 68.49323942267567 L 706.390073499124 68.41194406857777 L 706.2352328916932 68.32994466181995 L 706.0822139222669 68.24724940227456 L 705.9310318926146 68.16386655939866 L 705.7817019208132 68.07980447140702 L 705.6342389397357 67.99507154443839 L 705.4886576955572 67.90967625171488 L 705.3449727462807 67.8236271326946 L 705.2031984602816 67.73693279221771 L 705.0633490148701 67.64960189964606 L 704.9254383948744 67.56164318799608 L 704.7894803912413 67.47306545306569 L 704.6554885996583 67.38387755255452 L 704.5234764191925 67.29408840517834 L 704.3934570509522 67.20370698977703 L 704.2654434967657 67.11274234441683 L 704.1394485578818 67.02120356548647 L 704.0154848336895 66.92909980678756 L 703.8935647204578 66.83644027861922 L 703.7737004100964 66.74323424685704 L 703.6559038889365 66.64949103202653 L 703.540186936532 66.55522000837107 L 703.4265611244817 66.46043060291444 L 703.3150378152724 66.3651322945182 L 703.2056281611417 66.2693346129338 L 703.098343102964 66.17304713784955 L 702.9931933691557 66.07627949793272 L 702.8901894746027 65.97904136986665 L 702.7893417196084 65.88134247738313 L 702.6906601888643 65.78319259028999 L 702.5941547504414 65.68460152349414 L 702.4998350548029 65.58557913602012 L 702.4077105338399 65.48613533002413 L 702.3177903999277 65.38628004980393 L 702.2300836450048 65.2860232808043 L 702.1445990396735 65.18537504861862 L 702.0613451323233 65.08434541798623 L 701.9803302482752 64.982944491786 L 701.9015624889504 64.88118241002603 L 701.8250497310592 64.77906934882972 L 701.7507996258133 64.67661551941809 L 701.6788195981618 64.5738311670887 L 701.6091168460471 64.47072657019112 L 701.5416983396866 64.36731203909913 L 701.4765708208746 64.26359791517966 L 701.4137408023087 64.15959456975868 L 701.3532145669385 64.05531240308405 L 701.294998167337 63.95076184328555 L 701.2390974250958 63.84595334533201 L 701.1855179302423 63.74089738998592 L 701.1342650406815 63.63560448275524 L 701.0853438816597 63.530085152842965 L 701.0387593452518 63.42434995209415 L 700.994516089873 63.318409453940745 L 700.9526185398115 63.2122742523443 L 700.9130708847878 63.105954960736526 L 700.8758770795341 62.99946221095797 L 700.8410408434003 62.892806652194885 L 700.8085656599806 62.78599894991426 L 700.7784547767666 62.679049784797314 L 700.7507112048213 62.57196985167143 L 700.725337718479 62.464769858440704 L 700.702336855067 62.357460525015114 L 700.6817109146525 62.25005258223858 L 700.6634619598124 62.14255677081588 L 700.647591815427 62.03498384023857 L 700.6341020684974 61.92734454771006 L 700.6229940679872 61.81964965706991 L 700.6142689246872 61.71190993771744 L 700.6079275111042 61.6041361635348 L 700.6039704613746 61.49633911180959 L 700.6023981711999 61.38852956215717 L 700.6032107978078 61.28071829544265 L 700.6064082599364 61.172916092702856 L 700.6119902378421 61.06513373406823 L 700.6199561733317 60.957381997684834 L 700.6303052698185 60.84967165863649 L 700.6430364924013 60.74201348786736 L 700.6581485679684 60.6344182511048 L 700.675639985325 60.526896707782825 L 700.6955089953437 60.41945960996616 L 700.7177536111404 60.31211770127506 L 700.7423716082719 60.204881715810956 L 700.7693605249589 60.097762377083015 L 700.7987176623323 59.99077039693585 L 700.8304400847028 59.88391647447831 L 700.8645246198547 59.7772112950136 L 700.9009678593627 59.67066552897075 L 700.9397661589335 59.56428983083758 L 700.9809156387691 59.45809483809524 L 701.0244121839562 59.35209117015452 L 701.0702514448762 59.24628942729389 L 701.1184288376414 59.14070018959944 L 701.1689395445527 59.03533401590697 L 701.2217785145813 58.93020144274604 L 701.2769404638744 58.82531298328635 L 701.334419876283 58.72067912628645 L 701.3942110039138 58.61631033504484 L 701.4563078677037 58.51221704635366 L 701.5207042580182 58.40840966945505 L 701.587393735272 58.30489858500019 L 701.6563696305728 58.20169414401126 L 701.7276250463887 58.098806666846365 L 701.8011528572373 57.996246442167475 L 701.8769457103989 57.894023725911595 L 701.9549960266513 57.79214874026516 L 702.0352960010281 57.69063167264185 L 702.1178376035984 57.58948267466382 L 702.2026125802712 57.488711861146584 L 702.2896124536192 57.38832930908751 L 702.3788285237275 57.28834505665816 L 702.4702518690636 57.18876910220045 L 702.5638733473692 57.08961140322686 L 702.6596835965742 56.99088187542464 L 702.7576730357338 56.8925903916643 L 702.8578318659856 56.794746781012314 L 702.9601500715302 56.6973608277482 L 703.064617420632 56.60044227038614 L 703.1712234666435 56.5040008007011 L 703.2799575490487 56.40804606275968 L 703.39080879453 56.31258765195572 L 703.5037661180554 56.217635114050736 L 703.6188182239865 56.12319794421941 L 703.7359536072087 56.029285586100016 L 703.855160554281 55.93590743085011 L 703.9764271446085 55.8430728162074 L 704.0997412516328 55.75079102555599 L 704.2250905440463 55.65907128699804 L 704.352462487024 55.56792277243099 L 704.4818443434779 55.47735459663031 L 704.61322317533 55.387375816338135 L 704.7465858448065 55.29799542935749 L 704.8819190157519 55.20922237365261 L 705.0192091549618 55.12106552645507 L 705.1584425335366 55.033533703376136 L 705.2996052282544 54.94663565752517 L 705.4426831229636 54.86038007863435 L 705.5876619099937 54.77477559218968 L 705.734527091587 54.689830758568455 L 705.8832639813477 54.60555407218327 L 706.0338577057106 54.52195396063252 L 706.186293205429 54.439038783857704 L 706.3405552370798 54.35681683330739 L 706.4966283745885 54.27529633110813 L 706.6544970107713 54.19448542924221 L 706.8141453588962 54.114392208732454 L 706.9755574542613 54.03502467883419 L 707.1387171557918 53.95639077623426 L 707.3036081476533 53.878498364257396 L 707.4702139408843 53.801355232079885 L 707.638517875044 53.72496909395066 L 707.8085031198793 53.649347588419886 L 707.9801526770076 53.57449827757509 L 708.153449381616 53.50042864628498 L 708.3283759041785 53.42714610145097 L 708.5049147521887 53.35465797126647 L 708.6830482719088 53.28297150448409 L 708.8627586501353 53.21209386969077 L 709.0440279159802 53.14203215459092 L 709.2268379426679 53.072793365297684 L 709.4111704493481 53.00438442563227 L 709.5970070029239 52.93681217643165 L 709.7843290198945 52.870083374864436 L 709.9731177682144 52.80420469375517 L 710.1633543691662 52.739182720917064 L 710.3550197992483 52.67502395849323 L 710.5480948920774 52.611734822306424 L 710.7425603403051 52.54932164121754 L 710.9383966975487 52.48779065649267 L 711.1355843803354 52.427148021179015 L 711.3341036700617 52.36739979948956 L 711.5339347149637 52.3085519661967 L 711.7350575321035 52.25061040603471 L 711.9374520093671 52.19358091311133 L 712.1410979074755 52.13746919032833 L 712.3459748620082 52.08228084881122 L 712.5520623854409 52.02802140734818 L 712.7593398691928 51.974696291838114 L 712.9677865856883 51.922310834748146 L 713.1773816904295 51.87087027458034 L 713.3881042240804 51.82037975534783 L 713.5999331145634 51.770844326060484 L 713.812847179166 51.72226894021993 L 714.0268251266592 51.674658455324284 L 714.2418455594265 51.62801763238236 L 714.4578869756036 51.58235113543759 L 714.6749277712291 51.5376635311016 L 714.8929462424045 51.49395928809759 L 715.111920587464 51.451242776813444 L 715.3318289091558 51.409518268864694 L 715.552649216831 51.368789936667355 L 715.7743594286427 51.32906185302072 L 715.9969373737546 51.29033799070003 L 716.2203607945576 51.252622222059266 L 716.4446073488957 51.21591831864385 L 716.6696546123006 51.18022995081354 L 716.8954800802334 51.14556068737539 L 717.1220611703354 51.11191399522683 L 717.3493752246866 51.079293239009054 L 717.5773995120707 51.047701680770494 L 717.8061112302491 51.01714247964064 L 718.0354875082407 50.98761869151416 L 718.2655054086089 50.95913326874524 L 718.496141929755 50.93168905985244 L 718.7273740082194 50.90528880923376 L 718.9591785209867 50.87993515689227 L 719.1915322877991 50.85563063817208 L 719.4244120734733 50.83237768350481 L 719.6577945902249 50.81017861816654 L 719.8916564999967 50.78903566204531 L 720.1259744167925 50.768950929419105 L 720.360724909016 50.749926428744466 L 720.5958845018135 50.7319640624556 L 720.831429679422 50.71506562677416 L 721.0673368875196 50.69923281152964 L 721.3035825355823 50.684467199990365 L 721.5401429992421 50.6707702687052 L 721.7769946226499 50.658143387355835 L 722.0141137208406 50.64658781861989 L 722.251476582102 50.63610471804463 L 722.4890594703458 50.62669513393135 L 722.726838627481 50.61836000723063 L 722.9647902757904 50.61110017144819 L 723.2028906203071 50.604916352561574 L 723.4411158511953 50.5998091689475 L 723.6794421461303 50.595779131320086 L 723.9178456726813 50.592826642679725 L 724.1563025906942 50.59095199827282 L 724.394789054676 50.59015538556226 L 724.6332812161791 50.59043688420866 L 724.8717552261859 50.59179646606236 L 725.1101872374943 50.594233995166334 L 725.3485534071018 50.59774922776969 L 725.58682989859 50.6023418123521 L 725.8249928845086 50.60801128965893 L 726.0630185487571 50.61475709274719 L 726.3008830889676 50.622578547042174 L 726.5385627188842 50.63147487040497 L 726.7760336707423 50.64144517321068 L 727.0132721976443 50.6524884584373 L 727.2502545759352 50.66460362176552 L 727.4869571075748 50.67778945168912 L 727.7233561225071 50.69204462963607 L 727.9594279810277 50.70736773010048 L 728.1951490761473 50.72375722078505 L 728.430495835953 50.74121146275439 L 728.6654447259649 50.759728710598836 L 728.8999722514897 50.77930711260903 L 729.1340549599704 50.79994471096109 L 729.3676694433311 50.821639441912396 L 729.6007923403182 50.844389136007905 L 729.8334003388363 50.86819151829718 L 730.0654701782794 50.893044208561825 L 730.2969786518569 50.91894472155353 L 730.5279026089144 50.94589046724256 L 730.7582189572486 50.973878751076825 L 730.9879046654165 51.00290677425126 L 731.2169367650389 51.03297163398772 L 731.4452923530965 51.064070323825305 L 731.672948594221 51.09619973392093 L 731.8998827229777 51.129356651360375 L 732.1260720461431 51.16353776047952 L 732.3514939449734 51.198739643195935 L 732.5761258774663 51.23495877935069 L 732.799945380616 51.27219154706035 L 733.0229300726586 51.31043422307917 L 733.2450576553106 51.349682983171405 L 733.4663059159991 51.38993390249377 L 733.6866527300822 51.43118295598788 L 733.9060760630621 51.47342601878273 L 734.1245539727885 51.51665886660727 L 734.3420646116524 51.56087717621274 L 734.5585862287712 51.60607652580503 L 734.7740971721636 51.65225239548683 L 734.9885758909148 51.69940016770967 L 735.2020009373318 51.74751512773561 L 735.4143509690878 51.79659246410874 L 735.6256047513565 51.84662726913632 L 735.8357411589357 51.89761453937955 L 736.0447391783597 51.949549176153894 L 736.2525779100009 52.00242598603895 L 736.4592365701592 52.0562396813978 L 736.6646944931409 52.11098488090573 L 736.8689311333248 52.16665611008844 L 737.0719260672172 52.22324780186939 L 737.2736589954937 52.28075429712656 L 737.4741097450299 52.339169845258354 L 737.6732582709175 52.398488604758626 L 737.8710846584701 52.458704643800864 L 738.0675691252137 52.51981194083135 L 738.2626920228655 52.581804385171296 L 738.4564338392983 52.64467577762793 L 738.6487752004916 52.708419831114405 L 738.8396968724701 52.77303017127848 L 739.0291797632252 52.83850033713999 L 739.2172049246261 52.90482378173691 L 739.4037535543132 52.97199387278003 L 739.5888069975789 53.040003893316246 L 739.7723467492332 53.108847042400164 L 739.9543544554539 53.17851643577425 L 740.134811915622 53.24900510655722 L 740.3137010841418 53.32030600594074 L 740.4910040722456 53.39241200389429 L 740.6667031497824 53.465315889878156 L 740.8407807469907 53.5390103735645 L 741.013219456256 53.61348808556637 L 741.184002033851 53.68874157817461 L 741.3531114016603 53.76476332610268 L 741.5205306488879 53.84154572723915 L 741.6862430337487 53.91908110340788 L 741.8502319851424 53.99736170113587 L 742.0124811043104 54.07637969242858 L 742.172974166476 54.156127175552726 L 742.3316951224668 54.236596175826456 L 742.4886281003194 54.3177786464168 L 742.6437574068667 54.39966646914434 L 742.7970675293076 54.48225145529506 L 742.9485431367573 54.56552534643915 L 743.0981690817814 54.6494798152569 L 743.2459304019102 54.73410646637139 L 743.3918123211347 54.81939683718802 L 743.5358002513846 54.9053423987408 L 743.6778797939868 54.99193455654518 L 743.8180367411055 55.079164651457546 L 743.9562570771627 55.16702396054111 L 744.0925269802401 55.25550369793815 L 744.2268328234609 55.344595015748695 L 744.3591611763527 55.43428900491518 L 744.4894988061903 55.52457669611344 L 744.6178326793197 55.615449060649595 L 744.7441499624604 55.706897011362926 L 744.868438023989 55.79891140353456 L 744.9906844352034 55.891483035801954 L 745.1108769715642 55.98460265107904 L 745.2290036139178 56.07826093748187 L 745.3450525496985 56.17244852925987 L 745.4590121741094 56.26715600773234 L 745.570871091283 56.36237390223035 L 745.6806181154209 56.45809269104382 L 745.788242271912 56.55430280237361 L 745.8937327984305 56.65099461528878 L 745.9970791460115 56.74815846068861 L 746.0982709801065 56.84578462226952 L 746.1972981816164 56.943863337496715 L 746.2941508479033 57.0423847985804 L 746.3888192937817 57.14133915345658 L 746.4812940524856 57.240716506772216 L 746.5715658766164 57.34050692087479 L 746.6596257390668 57.44070041680606 L 746.7454648339238 57.54128697529992 L 746.8290745773498 57.64225653778434 L 746.9104466084398 57.74359900738722 L 746.9895727900587 57.84530424994605 L 747.0664452096541 57.94736209502132 L 747.1410561800483 58.04976233691358 L 747.2133982402063 58.15249473568397 L 747.2834641559825 58.25554901817823 L 747.3512469208436 58.35891487905398 L 747.4167397565695 58.46258198181127 L 747.4799361139314 58.566539959826216 L 747.5408296733461 58.67077841738765 L 747.5994143455085 58.77528693073668 L 747.6556842720001 58.88005504910905 L 747.7096338258754 58.985072295780256 L 747.7612576122236 59.09032816911312 L 747.8105504687093 59.19581214360803 L 747.8575074660879 59.301513670955444 L 747.9021239086987 59.4074221810907 L 747.9443953349348 59.513527083251056 L 747.9843175176886 59.619817767034704 L 748.0218864647753 59.72628360346185 L 748.0570984193313 59.832913946037564 L 748.0899498601907 59.939698131816456 L 748.1204375022365 60.046625482468926 L 748.1485582967302 60.153685305349015 L 748.1743094316156 60.26086689456366 L 748.1976883318008 60.36815953204325 L 748.2186926594151 60.47555248861345 L 748.2373203140434 60.5830350250681 L 748.2535694329356 60.69059639324311 L 748.2674383911935 60.79822583709131 L 748.2789258019328 60.905912593758 L 748.2880305164219 61.01364589465726 L 748.2947516241971 61.12141496654876 L 748.2990884531531 61.22920903261514 L 748.3010405696107 61.337017313539604 M 748.3011615596666 95.6752857281 L 748.299969099763 95.78309627301661 L 748.2963918392969 95.89089603696858 L 748.2904301359916 95.99867424006935 L 748.2820845860123 96.1064201045884 L 748.2713560239071 96.21412285602908 L 748.2582455225232 96.321771724206 L 748.2427543929 96.42935594432204 L 748.2248841841374 96.53686475804484 L 748.2046366832413 96.64428741458265 L 748.1820139149452 96.75161317175929 L 748.1570181415068 96.85883129708851 L 748.1296518624828 96.96593106884711 L 748.0999178144782 97.07290177714718 L 748.0678189708731 97.17973272500701 L 748.033358541525 97.28641322942086 L 747.9965399724482 97.39293262242717 L 747.9573669454688 97.49928025217542 L 747.9158433778571 97.60544548399125 L 747.8719734219351 97.71141770143996 L 747.8257614646617 97.8171863073881 L 747.7772121271944 97.92274072506322 L 747.7263302644263 98.02807039911151 L 747.6731209645014 98.13316479665336 L 747.6175895483052 98.23801340833658 L 747.5597415689332 98.34260574938737 L 747.499582811135 98.4469313606588 L 747.4371192907364 98.55097980967666 L 747.3723572540372 98.65474069168278 L 747.3053031771872 98.7582036306754 L 747.2359637655383 98.86135828044685 L 747.1643459529736 98.96419432561812 L 747.0904569012149 99.0667014826704 L 747.0143039991059 99.16886950097337 L 746.9358948618731 99.27068816381038 L 746.855237330365 99.37214728939998 L 746.7723394702675 99.47323673191414 L 746.6872095712977 99.57394638249288 L 746.5998561463742 99.67426617025505 L 746.510287930767 99.77418606330548 L 746.418513881223 99.87369606973812 L 746.3245431750706 99.97278623863527 L 746.228385209302 100.0714466610626 L 746.1300495996339 100.1696674710601 L 746.0295461795452 100.2674388466286 L 745.926884999294 100.36475101071201 L 745.8220763249129 100.46159423217506 L 745.715130637182 100.55795882677627 L 745.6060586305811 100.65383515813649 L 745.4948712122198 100.74921363870249 L 745.3815795007472 100.84408473070569 L 745.2661948252403 100.93843894711594 L 745.1487287240702 101.03226685259024 L 745.0291929437493 101.12555906441622 L 744.9075994377561 101.21830625345046 L 744.7839603653397 101.31049914505132 L 744.6582880903043 101.4021285200065 L 744.5305951797728 101.49318521545483 L 744.4008944029298 101.58366012580265 L 744.2691987297449 101.67354420363434 L 744.1355213296756 101.762828460617 L 743.9998755703507 101.85150396839936 L 743.8622750162328 101.93956185950451 L 743.7227334272629 102.02699332821673 L 743.5812647574836 102.11378963146201 L 743.4378831536438 102.19994208968237 L 743.2926029537847 102.28544208770374 L 743.1454386858048 102.37028107559762 L 742.9964050660087 102.45445056953588 L 742.8455169976338 102.53794215263929 L 742.6927895693615 102.6207474758191 L 742.5382380538073 102.70285825861201 L 742.3818779059937 102.78426629000816 L 742.2237247618054 102.86496342927225 L 742.0637944364252 102.9449416067576 L 741.902102922752 103.02419282471311 L 741.7386663898027 103.10270915808303 L 741.5735011810941 103.18048275529944 L 741.4066238130098 103.25750583906745 L 741.2380509731473 103.33377070714286 L 741.0677995186502 103.4092697331024 L 740.8958864745221 103.48399536710642 L 740.722329031924 103.55794013665377 L 740.5471445464557 103.63109664732913 L 740.3703505364197 103.70345758354237 L 740.1919646810696 103.7750157092602 L 740.0120048188423 103.84576386872968 L 739.8304889455743 103.91569498719377 L 739.6474352127013 103.98480207159896 L 739.4628619254444 104.05307821129438 L 739.2767875409781 104.12051657872294 L 739.0892306665862 104.1871104301041 L 738.9002100577995 104.25285310610823 L 738.7097446165217 104.31773803252251 L 738.5178533891378 104.38175872090837 L 738.324555564611 104.44490876925032 L 738.1298704725625 104.50718186259614 L 737.9338175813393 104.5685717736884 L 737.7364164960671 104.62907236358716 L 737.5376869566901 104.68867758228383 L 737.3376488359963 104.7473814693062 L 737.1363221376314 104.80517815431453 L 736.9337269940974 104.86206185768845 L 736.7298836647395 104.91802689110501 L 736.5248125337213 104.97306765810755 L 736.3185341079845 105.02717865466522 L 736.1110690152002 105.08035446972343 L 735.9024380017045 105.13258978574503 L 735.6926619304251 105.18387937924192 L 735.4817617787941 105.23421812129749 L 735.269758636651 105.28360097807949 L 735.0566737041333 105.33202301134341 L 734.842528289557 105.37947937892625 L 734.6273438072847 105.4259653352308 L 734.4111417755854 105.4714762317002 L 734.1939438144823 105.51600751728267 L 733.9757716435903 105.55955473888682 L 733.7566470799447 105.60211354182675 L 733.5365920358194 105.64367967025764 L 733.3156285165353 105.68424896760128 L 733.0937786182603 105.72381737696173 L 732.8710645257993 105.76238094153106 L 732.6475085103758 105.79993580498493 L 732.4231329274054 105.83647821186828 L 732.1979602142591 105.8720045079709 L 731.9720128880207 105.90651114069276 L 731.7453135432345 105.93999465939936 L 731.5178848496461 105.97245171576672 L 731.2897495499352 106.00387906411626 L 731.0609304574419 106.03427356173933 L 730.8314504538846 106.0636321692115 L 730.6013324870726 106.09195195069648 L 730.3705995686105 106.11923007423972 L 730.1392747715981 106.14546381205162 L 729.9073812283223 106.17065054078024 L 729.6749421279442 106.1947877417737 L 729.4419807141801 106.21787300133201 L 729.2085202829771 106.23990401094846 L 728.9745841801841 106.26087856754044 L 728.7401957992162 106.28079457366978 L 728.5053785787162 106.29965003775246 L 728.2701560002106 106.31744307425777 L 728.0345515857609 106.3341719038969 L 727.7985888956126 106.34983485380084 L 727.562291525838 106.36443035768762 L 727.325683105977 106.37795695601905 L 727.0887872966744 106.39041329614655 L 726.8516277873139 106.40179813244647 L 726.6142282936487 106.4121103264447 L 726.3766125554303 106.42134884693041 L 726.1388043340346 106.42951277005928 L 725.9008274100855 106.43660127944577 L 725.6627055810771 106.44261366624485 L 725.424462658994 106.44754932922287 L 725.1861224679296 106.45140777481762 L 724.9477088417046 106.45418861718778 L 724.7092456214829 106.45589157825142 L 724.4707566533878 106.45651648771386 L 724.2322657861172 106.45606328308465 L 723.9937968685593 106.4545320096839 L 723.7553737474071 106.45192282063768 L 723.5170202647741 106.44823597686269 L 723.2787602558097 106.44347184704026 L 723.0406175463165 106.43763090757939 L 722.8026159503669 106.43071374256917 L 722.5647792679221 106.42272104372033 L 722.3271312824521 106.41365361029608 L 722.0896957585576 106.40351234903224 L 721.8524964395929 106.39229827404645 L 721.6155570452925 106.38001250673689 L 721.3789012693982 106.36665627567004 L 721.1425527772903 106.35223091645787 L 720.9065352036213 106.33673787162431 L 720.6708721499517 106.32017869046089 L 720.4355871823906 106.30255502887195 L 720.2007038292386 106.28386864920897 L 719.9662455786353 106.26412142009434 L 719.7322358762104 106.2433153162345 L 719.498698122739 106.22145241822251 L 719.2656556718022 106.19853491232995 L 719.0331318274505 106.17456509028831 L 718.8011498418746 106.14954534905984 L 718.56973291308 106.12347819059778 L 718.3389041825665 106.09636622159626 L 718.1086867330149 106.06821215322961 L 717.8791035859783 106.03901880088118 L 717.65017769958 106.0087890838619 L 717.421931966218 105.97752602511825 L 717.1943892102754 105.94523275093007 L 716.9675721858381 105.91191249059789 L 716.7415035744197 105.87756857611994 L 716.5162059826927 105.84220444185907 L 716.2917019402286 105.8058236241992 L 716.0680138972447 105.76842976119184 L 715.8451642223588 105.73002659219209 L 715.6231752003526 105.69061795748485 L 715.4020690299436 105.65020779790075 L 715.1818678215642 105.60880015442207 L 714.962593595152 105.56639916777867 L 714.7442682779468 105.52300907803387 L 714.5269137022984 105.47863422416049 L 714.3105516034834 105.43327904360692 L 714.0952036175311 105.38694807185344 L 713.8808912790608 105.33964594195861 L 713.6676360191277 105.291377384096 L 713.4554591630803 105.24214722508117 L 713.244381928427 105.19196038788901 L 713.0344254227156 105.1408218911614 L 712.8256106414217 105.08873684870541 L 712.6179584658494 105.03571046898188 L 712.4114896610432 104.98174805458457 L 712.2062248737116 104.92685500170998 L 712.0021846301621 104.87103679961766 L 711.7993893342491 104.81429903008126 L 711.5978592653333 104.7566473668305 L 711.3976145762537 104.69808757498365 L 711.198675291312 104.63862551047107 L 711.0010613042713 104.57826711944969 L 710.8047923763654 104.51701843770829 L 710.6098881343236 104.45488559006402 L 710.4163680684077 104.39187478974986 L 710.2242515304629 104.32799233779335 L 710.0335577319831 104.26324462238642 L 709.8443057421891 104.19763811824667 L 709.6565144861222 104.13117938596986 L 709.4702027427516 104.0638750713738 L 709.2853891430962 103.99573190483389 L 709.1020921683621 103.92675670060999 L 708.9203301480939 103.85695635616503 L 708.7401212583424 103.7863378514753 L 708.5614835198461 103.71490824833242 L 708.3844347962302 103.64267468963719 L 708.2089927922193 103.56964439868527 L 708.0351750518679 103.4958246784449 L 707.862998956805 103.4212229108266 L 707.6924817244966 103.34584655594495 L 707.523640406524 103.26970315137261 L 707.3564918868781 103.19280031138662 L 707.1910528802717 103.11514572620688 L 707.0273399304675 103.03674716122718 L 706.8653694086242 102.9576124562387 L 706.705157511659 102.87774952464599 L 706.5467202606278 102.79716635267567 L 706.390073499124 102.71587099857777 L 706.2352328916932 102.63387159181995 L 706.0822139222669 102.55117633227457 L 705.9310318926146 102.46779348939864 L 705.7817019208132 102.383731401407 L 705.6342389397357 102.29899847443839 L 705.4886576955572 102.21360318171489 L 705.3449727462807 102.12755406269459 L 705.2031984602816 102.04085972221772 L 705.0633490148701 101.95352882964605 L 704.9254383948744 101.86557011799609 L 704.7894803912413 101.77699238306568 L 704.6554885996583 101.68780448255453 L 704.5234764191925 101.59801533517833 L 704.3934570509522 101.50763391977702 L 704.2654434967657 101.41666927441683 L 704.1394485578818 101.32513049548646 L 704.0154848336895 101.23302673678755 L 703.8935647204578 101.14036720861921 L 703.7737004100964 101.04716117685703 L 703.6559038889365 100.95341796202653 L 703.540186936532 100.85914693837105 L 703.4265611244817 100.76435753291443 L 703.3150378152724 100.66905922451821 L 703.2056281611417 100.5732615429338 L 703.098343102964 100.47697406784954 L 702.9931933691557 100.3802064279327 L 702.8901894746027 100.28296829986664 L 702.7893417196084 100.18526940738312 L 702.6906601888643 100.08711952028997 L 702.5941547504414 99.98852845349413 L 702.4998350548029 99.8895060660201 L 702.4077105338399 99.79006226002413 L 702.3177903999277 99.69020697980392 L 702.2300836450048 99.5899502108043 L 702.1445990396735 99.48930197861863 L 702.0613451323233 99.38827234798623 L 701.9803302482752 99.28687142178599 L 701.9015624889504 99.18510934002603 L 701.8250497310592 99.08299627882971 L 701.7507996258133 98.98054244941808 L 701.6788195981618 98.87775809708869 L 701.6091168460471 98.7746535001911 L 701.5416983396866 98.67123896909912 L 701.4765708208746 98.56752484517966 L 701.4137408023087 98.46352149975867 L 701.3532145669385 98.35923933308405 L 701.294998167337 98.25468877328554 L 701.2390974250958 98.14988027533201 L 701.1855179302423 98.04482431998592 L 701.1342650406815 97.93953141275524 L 701.0853438816597 97.83401208284296 L 701.0387593452518 97.72827688209414 L 700.994516089873 97.62233638394075 L 700.9526185398115 97.5162011823443 L 700.9130708847878 97.40988189073651 L 700.8758770795341 97.30338914095798 L 700.8410408434003 97.19673358219488 L 700.8085656599806 97.08992587991426 L 700.7784547767666 96.9829767147973 L 700.7507112048213 96.87589678167143 L 700.725337718479 96.7686967884407 L 700.702336855067 96.66138745501512 L 700.6817109146525 96.55397951223858 L 700.6634619598124 96.44648370081588 L 700.647591815427 96.33891077023856 L 700.6341020684974 96.23127147771005 L 700.6229940679872 96.1235765870699 L 700.6142689246872 96.01583686771744 L 700.6079275111042 95.90806309353479 L 700.6039704613746 95.80026604180959 L 700.6023981711999 95.69245649215716" stroke-miterlimit="10" stroke-width="2.7769845610000004" stroke-dasharray=""/></g><g><g/><text fill="black" stroke="none" font-family="sans-serif" font-size="11pt" font-style="normal" font-weight="normal" text-decoration="normal" x="693.0738197953776" y="123.98419304699999" text-anchor="start" dominant-baseline="alphabetic" xml:space="preserve">Database</text></g><path fill="none" stroke="none"/><g><path fill="white" stroke="black" paint-order="fill stroke markers" d=" M 773.4573746416667 84.779705127 L 928.6828419745417 84.779705127 L 928.6828419745417 128.884754037 L 773.4573746416667 128.884754037 L 773.4573746416667 84.779705127 Z" stroke-miterlimit="10" stroke-width="2.613632528" stroke-dasharray=""/></g><g><g/><text fill="black" stroke="none" font-family="sans-serif" font-size="11pt" font-style="normal" font-weight="normal" text-decoration="normal" x="791.1810702221667" y="112.549550737" text-anchor="start" dominant-baseline="alphabetic" xml:space="preserve">Payment Gateway</text></g><path fill="none" stroke="none"/><g><path fill="white" stroke="black" paint-order="fill stroke markers" d=" M 945.0180452745417 84.779705127 L 1054.6243109472605 84.779705127 L 1054.6243109472605 128.884754037 L 945.0180452745417 128.884754037 L 945.0180452745417 84.779705127 Z" stroke-miterlimit="10" stroke-width="2.613632528" stroke-dasharray=""/></g><g><g/><text fill="black" stroke="none" font-family="sans-serif" font-size="11pt" font-style="normal" font-weight="normal" text-decoration="normal" x="962.7417408550417" y="112.549550737" text-anchor="start" dominant-baseline="alphabetic" xml:space="preserve">Pizza Shop</text></g><path fill="none" stroke="none"/><g><path fill="white" stroke="black" paint-order="fill stroke markers" d=" M 1070.9595142472606 84.779705127 L 1212.0761558965419 84.779705127 L 1212.0761558965419 128.884754037 L 1070.9595142472606 128.884754037 L 1070.9595142472606 84.779705127 Z" stroke-miterlimit="10" stroke-width="2.613632528" stroke-dasharray=""/></g><g><g/><text fill="black" stroke="none" font-family="sans-serif" font-size="11pt" font-style="normal" font-weight="normal" text-decoration="normal" x="1088.6832098277605" y="112.549550737" text-anchor="start" dominant-baseline="alphabetic" xml:space="preserve">Web Application</text></g><path fill="none" stroke="none"/><g><path fill="white" stroke="black" paint-order="fill stroke markers" d=" M 1228.4113591965418 84.779705127 L 1360.0290842198465 84.779705127 L 1360.0290842198465 128.884754037 L 1228.4113591965418 128.884754037 L 1228.4113591965418 84.779705127 Z" stroke-miterlimit="10" stroke-width="2.613632528" stroke-dasharray=""/></g><g><g/><text fill="black" stroke="none" font-family="sans-serif" font-size="11pt" font-style="normal" font-weight="normal" text-decoration="normal" x="1246.1350547770417" y="112.549550737" text-anchor="start" dominant-baseline="alphabetic" xml:space="preserve">Shop Manager</text></g></g><g><g><g><rect fill="white" stroke="none" x="210.98083095877607" y="161.555160637" width="59.48893989625" height="21.23576429"/></g><text fill="black" stroke="none" font-family="sans-serif" font-size="11pt" font-style="normal" font-weight="normal" text-decoration="normal" x="213.43111145377605" y="176.25684360699998" text-anchor="start" dominant-baseline="alphabetic" xml:space="preserve">Register</text></g><g><path fill="none" stroke="black" paint-order="fill stroke markers" d=" M 73.50841485 182.790924927 L 394.49286958013545 182.790924927" stroke-miterlimit="10" stroke-width="1.3612669416666667" stroke-dasharray=""/><g transform="translate(407.9421869638021,182.790924927) translate(-407.9421869638021,-182.790924927)"><path fill="black" stroke="none" paint-order="stroke fill markers" d=" M 394.3295175471354 175.98459021866665 L 407.9421869638021 182.790924927 L 394.3295175471354 189.59725963533333 Z"/></g></g><g><g><rect fill="white" stroke="none" x="541.7459858240429" y="207.293729877" width="48.901980057382815" height="21.23576429"/></g><text fill="black" stroke="none" font-family="sans-serif" font-size="11pt" font-style="normal" font-weight="normal" text-decoration="normal" x="544.1962663190429" y="221.99541284699998" text-anchor="start" dominant-baseline="alphabetic" xml:space="preserve">Create</text></g><g><path fill="none" stroke="black" paint-order="fill stroke markers" d=" M 407.9421869638021 228.529494167 L 711.002447358 228.529494167" stroke-miterlimit="10" stroke-width="1.3612669416666667" stroke-dasharray=""/><g transform="translate(724.4517647416667,228.529494167) translate(-724.4517647416667,-228.529494167)"><path fill="black" stroke="none" paint-order="stroke fill markers" d=" M 710.839095325 221.72315945866666 L 724.4517647416667 228.529494167 L 710.839095325 235.33582887533333 Z"/></g></g><g><g><rect fill="white" stroke="none" x="743.7817553133334" y="253.03229911700004" width="48.09309639039063" height="21.23576429"/></g><text fill="black" stroke="none" font-family="sans-serif" font-size="11pt" font-style="normal" font-weight="normal" text-decoration="normal" x="746.2320358083334" y="267.733982087" text-anchor="start" dominant-baseline="alphabetic" xml:space="preserve">Invoke</text></g><g><path fill="none" stroke="black" paint-order="fill stroke markers" d=" M 724.4517647416667 274.268063407 L 789.7925779416667 274.268063407 L 789.7925779416667 295.503827697 L 737.9010821253333 295.503827697" stroke-miterlimit="10" stroke-width="1.3612669416666667" stroke-dasharray=""/><g transform="translate(724.4517647416667,295.503827697) translate(-724.4517647416667,-295.503827697)"><path fill="black" stroke="none" paint-order="stroke fill markers" d=" M 738.0644341583334 288.6974929886667 L 724.4517647416667 295.503827697 L 738.0644341583334 302.31016240533336 Z"/></g></g><g><g><rect fill="white" stroke="none" x="503.4568012537304" y="320.006632647" width="125.48034919800781" height="21.23576429"/></g><text fill="black" stroke="none" font-family="sans-serif" font-size="11pt" font-style="normal" font-weight="normal" text-decoration="normal" x="505.90708174873043" y="334.708315617" text-anchor="start" dominant-baseline="alphabetic" xml:space="preserve">New User Created</text></g><g><path fill="none" stroke="black" paint-order="fill stroke markers" d=" M 724.4517647416667 341.242396937 L 421.39150434746875 341.242396937" stroke-miterlimit="10" stroke-width="1.3612669416666667" stroke-dasharray="6.53408132"/><g transform="translate(407.9421869638021,341.242396937) translate(-407.9421869638021,-341.242396937)"><path fill="black" stroke="none" paint-order="stroke fill markers" d=" M 421.5548563804688 334.4360622286667 L 407.9421869638021 341.242396937 L 421.5548563804688 348.04873164533336 Z"/></g></g><g><g><rect fill="white" stroke="none" x="195.0896490129753" y="409.850250797" width="91.27130378785156" height="21.23576429"/></g><text fill="black" stroke="none" font-family="sans-serif" font-size="11pt" font-style="normal" font-weight="normal" text-decoration="normal" x="197.53992950797527" y="424.551933767" text-anchor="start" dominant-baseline="alphabetic" xml:space="preserve">Search Pizza</text></g><g><path fill="none" stroke="black" paint-order="fill stroke markers" d=" M 73.50841485 431.086015087 L 394.49286958013545 431.086015087" stroke-miterlimit="10" stroke-width="1.3612669416666667" stroke-dasharray=""/><g transform="translate(407.9421869638021,431.086015087) translate(-407.9421869638021,-431.086015087)"><path fill="black" stroke="none" paint-order="stroke fill markers" d=" M 394.3295175471354 424.2796803786667 L 407.9421869638021 431.086015087 L 394.3295175471354 437.89234979533336 Z"/></g></g><g><g><rect fill="white" stroke="none" x="519.7381275476757" y="455.588820037" width="92.91769661011719" height="21.23576429"/></g><text fill="black" stroke="none" font-family="sans-serif" font-size="11pt" font-style="normal" font-weight="normal" text-decoration="normal" x="522.1884080426757" y="470.290503007" text-anchor="start" dominant-baseline="alphabetic" xml:space="preserve">Lookup Pizza</text></g><g><path fill="none" stroke="black" paint-order="fill stroke markers" d=" M 407.9421869638021 476.824584327 L 711.002447358 476.824584327" stroke-miterlimit="10" stroke-width="1.3612669416666667" stroke-dasharray=""/><g transform="translate(724.4517647416667,476.824584327) translate(-724.4517647416667,-476.824584327)"><path fill="black" stroke="none" paint-order="stroke fill markers" d=" M 710.839095325 470.0182496186667 L 724.4517647416667 476.824584327 L 710.839095325 483.63091903533336 Z"/></g></g><g><g><rect fill="white" stroke="none" x="743.7817553133334" y="501.327389277" width="51.35006965699219" height="21.23576429"/></g><text fill="black" stroke="none" font-family="sans-serif" font-size="11pt" font-style="normal" font-weight="normal" text-decoration="normal" x="746.2320358083334" y="516.029072247" text-anchor="start" dominant-baseline="alphabetic" xml:space="preserve">Search</text></g><g><path fill="none" stroke="black" paint-order="fill stroke markers" d=" M 724.4517647416667 522.563153567 L 789.7925779416667 522.563153567 L 789.7925779416667 543.798917857 L 737.9010821253333 543.798917857" stroke-miterlimit="10" stroke-width="1.3612669416666667" stroke-dasharray=""/><g transform="translate(724.4517647416667,543.798917857) translate(-724.4517647416667,-543.798917857)"><path fill="black" stroke="none" paint-order="stroke fill markers" d=" M 738.0644341583334 536.9925831486667 L 724.4517647416667 543.798917857 L 738.0644341583334 550.6052525653333 Z"/></g></g><g><g><rect fill="white" stroke="none" x="518.9328220667187" y="568.3017228069999" width="94.52830757203125" height="21.23576429"/></g><text fill="black" stroke="none" font-family="sans-serif" font-size="11pt" font-style="normal" font-weight="normal" text-decoration="normal" x="521.3831025617187" y="583.0034057769999" text-anchor="start" dominant-baseline="alphabetic" xml:space="preserve">Return Result</text></g><g><path fill="none" stroke="black" paint-order="fill stroke markers" d=" M 724.4517647416667 589.5374870969999 L 421.39150434746875 589.5374870969999" stroke-miterlimit="10" stroke-width="1.3612669416666667" stroke-dasharray="6.53408132"/><g transform="translate(407.9421869638021,589.5374870969999) translate(-407.9421869638021,-589.5374870969999)"><path fill="black" stroke="none" paint-order="stroke fill markers" d=" M 421.5548563804688 582.7311523886666 L 407.9421869638021 589.5374870969999 L 421.5548563804688 596.3438218053333 Z"/></g></g><g><g><rect fill="white" stroke="none" x="181.23853664725263" y="638.5430969969999" width="118.97352851929688" height="21.23576429"/></g><text fill="black" stroke="none" font-family="sans-serif" font-size="11pt" font-style="normal" font-weight="normal" text-decoration="normal" x="183.68881714225262" y="653.2447799669999" text-anchor="start" dominant-baseline="alphabetic" xml:space="preserve">Add Pizza to Cart</text></g><g><path fill="none" stroke="black" paint-order="fill stroke markers" d=" M 73.50841485 659.7788612869999 L 394.49286958013545 659.7788612869999" stroke-miterlimit="10" stroke-width="1.3612669416666667" stroke-dasharray=""/><g transform="translate(407.9421869638021,659.7788612869999) translate(-407.9421869638021,-659.7788612869999)"><path fill="black" stroke="none" paint-order="stroke fill markers" d=" M 394.3295175471354 652.9725265786666 L 407.9421869638021 659.7788612869999 L 394.3295175471354 666.5851959953333 Z"/></g></g><g><g><rect fill="white" stroke="none" x="155.98444729178388" y="684.2816662369999" width="169.48170723023438" height="21.23576429"/></g><text fill="black" stroke="none" font-family="sans-serif" font-size="11pt" font-style="normal" font-weight="normal" text-decoration="normal" x="158.43472778678387" y="698.9833492069998" text-anchor="start" dominant-baseline="alphabetic" xml:space="preserve">Provide Delivery Address</text></g><g><path fill="none" stroke="black" paint-order="fill stroke markers" d=" M 73.50841485 705.5174305269999 L 394.49286958013545 705.5174305269999" stroke-miterlimit="10" stroke-width="1.3612669416666667" stroke-dasharray=""/><g transform="translate(407.9421869638021,705.5174305269999) translate(-407.9421869638021,-705.5174305269999)"><path fill="black" stroke="none" paint-order="stroke fill markers" d=" M 394.3295175471354 698.7110958186665 L 407.9421869638021 705.5174305269999 L 394.3295175471354 712.3237652353332 Z"/></g></g><g><g><rect fill="white" stroke="none" x="427.2721775354687" y="730.0202354769998" width="277.8495966345312" height="21.23576429"/></g><text fill="black" stroke="none" font-family="sans-serif" font-size="11pt" font-style="normal" font-weight="normal" text-decoration="normal" x="429.7224580304687" y="744.7219184469998" text-anchor="start" dominant-baseline="alphabetic" xml:space="preserve">Store Delivery Address for registered user</text></g><g><path fill="none" stroke="black" paint-order="fill stroke markers" d=" M 407.9421869638021 751.2559997669998 L 711.002447358 751.2559997669998" stroke-miterlimit="10" stroke-width="1.3612669416666667" stroke-dasharray=""/><g transform="translate(724.4517647416667,751.2559997669998) translate(-724.4517647416667,-751.2559997669998)"><path fill="black" stroke="none" paint-order="stroke fill markers" d=" M 710.839095325 744.4496650586665 L 724.4517647416667 751.2559997669998 L 710.839095325 758.0623344753332 Z"/></g></g><g><g><rect fill="white" stroke="none" x="743.7817553133334" y="775.7588047169997" width="39.93991340699219" height="21.23576429"/></g><text fill="black" stroke="none" font-family="sans-serif" font-size="11pt" font-style="normal" font-weight="normal" text-decoration="normal" x="746.2320358083334" y="790.4604876869997" text-anchor="start" dominant-baseline="alphabetic" xml:space="preserve">Store</text></g><g><path fill="none" stroke="black" paint-order="fill stroke markers" d=" M 724.4517647416667 796.9945690069998 L 789.7925779416667 796.9945690069998 L 789.7925779416667 818.2303332969998 L 737.9010821253333 818.2303332969998" stroke-miterlimit="10" stroke-width="1.3612669416666667" stroke-dasharray=""/><g transform="translate(724.4517647416667,818.2303332969998) translate(-724.4517647416667,-818.2303332969998)"><path fill="black" stroke="none" paint-order="stroke fill markers" d=" M 738.0644341583334 811.4239985886664 L 724.4517647416667 818.2303332969998 L 738.0644341583334 825.0366680053331 Z"/></g></g><g><g><rect fill="white" stroke="none" x="499.37665446417964" y="842.7331382469997" width="133.64064277710938" height="21.23576429"/></g><text fill="black" stroke="none" font-family="sans-serif" font-size="11pt" font-style="normal" font-weight="normal" text-decoration="normal" x="501.82693495917965" y="857.4348212169997" text-anchor="start" dominant-baseline="alphabetic" xml:space="preserve">Stored Successfully</text></g><g><path fill="none" stroke="black" paint-order="fill stroke markers" d=" M 724.4517647416667 863.9689025369997 L 421.39150434746875 863.9689025369997" stroke-miterlimit="10" stroke-width="1.3612669416666667" stroke-dasharray=""/><g transform="translate(407.9421869638021,863.9689025369997) translate(-407.9421869638021,-863.9689025369997)"><path fill="black" stroke="none" paint-order="stroke fill markers" d=" M 421.5548563804688 857.1625678286664 L 407.9421869638021 863.9689025369997 L 421.5548563804688 870.7752372453331 Z"/></g></g><g><g><rect fill="white" stroke="none" x="92.83840542166668" y="932.5767563969996" width="295.7737909704687" height="21.23576429"/></g><text fill="black" stroke="none" font-family="sans-serif" font-size="11pt" font-style="normal" font-weight="normal" text-decoration="normal" x="95.28868591666668" y="947.2784393669996" text-anchor="start" dominant-baseline="alphabetic" xml:space="preserve">Card Holder name,Card Number,Expiry Date</text></g><g><path fill="none" stroke="black" paint-order="fill stroke markers" d=" M 73.50841485 953.8125206869996 L 394.49286958013545 953.8125206869996" stroke-miterlimit="10" stroke-width="1.3612669416666667" stroke-dasharray=""/><g transform="translate(407.9421869638021,953.8125206869996) translate(-407.9421869638021,-953.8125206869996)"><path fill="black" stroke="none" paint-order="stroke fill markers" d=" M 394.3295175471354 947.0061859786663 L 407.9421869638021 953.8125206869996 L 394.3295175471354 960.618855395333 Z"/></g></g><g><g><rect fill="white" stroke="none" x="119.30943661063152" y="978.3153256369995" width="242.83172859253906" height="21.23576429"/></g><text fill="black" stroke="none" font-family="sans-serif" font-size="11pt" font-style="normal" font-weight="normal" text-decoration="normal" x="121.75971710563152" y="993.0170086069995" text-anchor="start" dominant-baseline="alphabetic" xml:space="preserve">Store Payment info if registered user</text></g><g><path fill="none" stroke="black" paint-order="fill stroke markers" d=" M 73.50841485 999.5510899269996 L 394.49286958013545 999.5510899269996" stroke-miterlimit="10" stroke-width="1.3612669416666667" stroke-dasharray=""/><g transform="translate(407.9421869638021,999.5510899269996) translate(-407.9421869638021,-999.5510899269996)"><path fill="black" stroke="none" paint-order="stroke fill markers" d=" M 394.3295175471354 992.7447552186662 L 407.9421869638021 999.5510899269996 L 394.3295175471354 1006.3574246353329 Z"/></g></g><g><g><rect fill="white" stroke="none" x="562.8146638328476" y="1024.0538948769997" width="133.38296760621094" height="21.23576429"/></g><text fill="black" stroke="none" font-family="sans-serif" font-size="11pt" font-style="normal" font-weight="normal" text-decoration="normal" x="565.2649443278476" y="1038.7555778469998" text-anchor="start" dominant-baseline="alphabetic" xml:space="preserve">Validate information</text></g><g><path fill="none" stroke="black" paint-order="fill stroke markers" d=" M 407.9421869638021 1045.2896591669996 L 837.6207909244375 1045.2896591669996" stroke-miterlimit="10" stroke-width="1.3612669416666667" stroke-dasharray=""/><g transform="translate(851.0701083081042,1045.2896591669996) translate(-851.0701083081042,-1045.2896591669996)"><path fill="black" stroke="none" paint-order="stroke fill markers" d=" M 837.4574388914375 1038.4833244586664 L 851.0701083081042 1045.2896591669996 L 837.4574388914375 1052.0959938753329 Z"/></g></g><g><g><rect fill="white" stroke="none" x="870.4000988797709" y="1069.7924641169996" width="56.79030098023438" height="21.23576429"/></g><text fill="black" stroke="none" font-family="sans-serif" font-size="11pt" font-style="normal" font-weight="normal" text-decoration="normal" x="872.8503793747709" y="1084.4941470869996" text-anchor="start" dominant-baseline="alphabetic" xml:space="preserve">Validate</text></g><g><path fill="none" stroke="black" paint-order="fill stroke markers" d=" M 851.0701083081042 1091.0282284069997 L 916.4109215081041 1091.0282284069997 L 916.4109215081041 1112.2639926969996 L 864.5194256917708 1112.2639926969996" stroke-miterlimit="10" stroke-width="1.3612669416666667" stroke-dasharray=""/><g transform="translate(851.0701083081042,1112.2639926969996) translate(-851.0701083081042,-1112.2639926969996)"><path fill="black" stroke="none" paint-order="stroke fill markers" d=" M 864.6827777247709 1105.4576579886664 L 851.0701083081042 1112.2639926969996 L 864.6827777247709 1119.0703274053328 Z"/></g></g><g><g><rect fill="white" stroke="none" x="560.6493119651718" y="1136.7667976469997" width="137.7136713415625" height="21.23576429"/></g><text fill="black" stroke="none" font-family="sans-serif" font-size="11pt" font-style="normal" font-weight="normal" text-decoration="normal" x="563.0995924601718" y="1151.4684806169998" text-anchor="start" dominant-baseline="alphabetic" xml:space="preserve">Payment Successful</text></g><g><path fill="none" stroke="black" paint-order="fill stroke markers" d=" M 851.0701083081042 1158.0025619369997 L 421.39150434746875 1158.0025619369997" stroke-miterlimit="10" stroke-width="1.3612669416666667" stroke-dasharray=""/><g transform="translate(407.9421869638021,1158.0025619369997) translate(-407.9421869638021,-1158.0025619369997)"><path fill="black" stroke="none" paint-order="stroke fill markers" d=" M 421.5548563804688 1151.1962272286664 L 407.9421869638021 1158.0025619369997 L 421.5548563804688 1164.8088966453329 Z"/></g></g><g><g><rect fill="white" stroke="none" x="166.98656063406904" y="1226.6104157969999" width="147.47748054566406" height="21.23576429"/></g><text fill="black" stroke="none" font-family="sans-serif" font-size="11pt" font-style="normal" font-weight="normal" text-decoration="normal" x="169.43684112906902" y="1241.312098767" text-anchor="start" dominant-baseline="alphabetic" xml:space="preserve">Name,Mobile Number</text></g><g><path fill="none" stroke="black" paint-order="fill stroke markers" d=" M 73.50841485 1247.8461800869998 L 394.49286958013545 1247.8461800869998" stroke-miterlimit="10" stroke-width="1.3612669416666667" stroke-dasharray=""/><g transform="translate(407.9421869638021,1247.8461800869998) translate(-407.9421869638021,-1247.8461800869998)"><path fill="black" stroke="none" paint-order="stroke fill markers" d=" M 394.3295175471354 1241.0398453786665 L 407.9421869638021 1247.8461800869998 L 394.3295175471354 1254.652514795333 Z"/></g></g><g><g><rect fill="white" stroke="none" x="562.8146638328476" y="1272.348985037" width="133.38296760621094" height="21.23576429"/></g><text fill="black" stroke="none" font-family="sans-serif" font-size="11pt" font-style="normal" font-weight="normal" text-decoration="normal" x="565.2649443278476" y="1287.050668007" text-anchor="start" dominant-baseline="alphabetic" xml:space="preserve">Validate information</text></g><g><path fill="none" stroke="black" paint-order="fill stroke markers" d=" M 407.9421869638021 1293.5847493269998 L 837.6207909244375 1293.5847493269998" stroke-miterlimit="10" stroke-width="1.3612669416666667" stroke-dasharray=""/><g transform="translate(851.0701083081042,1293.5847493269998) translate(-851.0701083081042,-1293.5847493269998)"><path fill="black" stroke="none" paint-order="stroke fill markers" d=" M 837.4574388914375 1286.7784146186666 L 851.0701083081042 1293.5847493269998 L 837.4574388914375 1300.391084035333 Z"/></g></g><g><g><rect fill="white" stroke="none" x="870.4000988797709" y="1318.0875542769998" width="56.79030098023438" height="21.23576429"/></g><text fill="black" stroke="none" font-family="sans-serif" font-size="11pt" font-style="normal" font-weight="normal" text-decoration="normal" x="872.8503793747709" y="1332.7892372469998" text-anchor="start" dominant-baseline="alphabetic" xml:space="preserve">Validate</text></g><g><path fill="none" stroke="black" paint-order="fill stroke markers" d=" M 851.0701083081042 1339.323318567 L 916.4109215081041 1339.323318567 L 916.4109215081041 1360.5590828569998 L 864.5194256917708 1360.5590828569998" stroke-miterlimit="10" stroke-width="1.3612669416666667" stroke-dasharray=""/><g transform="translate(851.0701083081042,1360.5590828569998) translate(-851.0701083081042,-1360.5590828569998)"><path fill="black" stroke="none" paint-order="stroke fill markers" d=" M 864.6827777247709 1353.7527481486666 L 851.0701083081042 1360.5590828569998 L 864.6827777247709 1367.365417565333 Z"/></g></g><g><g><rect fill="white" stroke="none" x="560.6493119651718" y="1385.061887807" width="137.7136713415625" height="21.23576429"/></g><text fill="black" stroke="none" font-family="sans-serif" font-size="11pt" font-style="normal" font-weight="normal" text-decoration="normal" x="563.0995924601718" y="1399.763570777" text-anchor="start" dominant-baseline="alphabetic" xml:space="preserve">Payment Successful</text></g><g><path fill="none" stroke="black" paint-order="fill stroke markers" d=" M 851.0701083081042 1406.2976520969999 L 421.39150434746875 1406.2976520969999" stroke-miterlimit="10" stroke-width="1.3612669416666667" stroke-dasharray=""/><g transform="translate(407.9421869638021,1406.2976520969999) translate(-407.9421869638021,-1406.2976520969999)"><path fill="black" stroke="none" paint-order="stroke fill markers" d=" M 421.5548563804688 1399.4913173886666 L 407.9421869638021 1406.2976520969999 L 421.5548563804688 1413.103986805333 Z"/></g></g><g><g><rect fill="white" stroke="none" x="199.16623287527997" y="1455.303261997" width="83.11813606324219" height="21.23576429"/></g><text fill="black" stroke="none" font-family="sans-serif" font-size="11pt" font-style="normal" font-weight="normal" text-decoration="normal" x="201.61651337027996" y="1470.004944967" text-anchor="start" dominant-baseline="alphabetic" xml:space="preserve">Place Order</text></g><g><path fill="none" stroke="black" paint-order="fill stroke markers" d=" M 73.50841485 1476.5390262869998 L 394.49286958013545 1476.5390262869998" stroke-miterlimit="10" stroke-width="1.3612669416666667" stroke-dasharray=""/><g transform="translate(407.9421869638021,1476.5390262869998) translate(-407.9421869638021,-1476.5390262869998)"><path fill="black" stroke="none" paint-order="stroke fill markers" d=" M 394.3295175471354 1469.7326915786666 L 407.9421869638021 1476.5390262869998 L 394.3295175471354 1483.345360995333 Z"/></g></g><g><g><rect fill="white" stroke="none" x="644.3984964637383" y="1501.041831237" width="118.96637214722656" height="21.23576429"/></g><text fill="black" stroke="none" font-family="sans-serif" font-size="11pt" font-style="normal" font-weight="normal" text-decoration="normal" x="646.8487769587383" y="1515.743514207" text-anchor="start" dominant-baseline="alphabetic" xml:space="preserve">Order Notification</text></g><g><path fill="none" stroke="black" paint-order="fill stroke markers" d=" M 407.9421869638021 1522.277595527 L 986.3718607272344 1522.277595527" stroke-miterlimit="10" stroke-width="1.3612669416666667" stroke-dasharray=""/><g transform="translate(999.8211781109011,1522.277595527) translate(-999.8211781109011,-1522.277595527)"><path fill="black" stroke="none" paint-order="stroke fill markers" d=" M 986.2085086942344 1515.4712608186667 L 999.8211781109011 1522.277595527 L 986.2085086942344 1529.0839302353331 Z"/></g></g><g><g><rect fill="white" stroke="none" x="813.2366746348971" y="1546.780400477" width="97.79959358277344" height="21.23576429"/></g><text fill="black" stroke="none" font-family="sans-serif" font-size="11pt" font-style="normal" font-weight="normal" text-decoration="normal" x="815.6869551298971" y="1561.4820834470002" text-anchor="start" dominant-baseline="alphabetic" xml:space="preserve">Register Shop</text></g><g><path fill="none" stroke="black" paint-order="fill stroke markers" d=" M 999.8211781109011 1568.016164767 L 737.9010821253333 1568.016164767" stroke-miterlimit="10" stroke-width="1.3612669416666667" stroke-dasharray=""/><g transform="translate(724.4517647416667,1568.016164767) translate(-724.4517647416667,-1568.016164767)"><path fill="black" stroke="none" paint-order="stroke fill markers" d=" M 738.0644341583334 1561.2098300586667 L 724.4517647416667 1568.016164767 L 738.0644341583334 1574.8224994753332 Z"/></g></g><g><g><rect fill="white" stroke="none" x="743.7817553133334" y="1592.518969717" width="59.48893989625" height="21.23576429"/></g><text fill="black" stroke="none" font-family="sans-serif" font-size="11pt" font-style="normal" font-weight="normal" text-decoration="normal" x="746.2320358083334" y="1607.220652687" text-anchor="start" dominant-baseline="alphabetic" xml:space="preserve">Register</text></g><g><path fill="none" stroke="black" paint-order="fill stroke markers" d=" M 724.4517647416667 1613.754734007 L 789.7925779416667 1613.754734007 L 789.7925779416667 1634.990498297 L 737.9010821253333 1634.990498297" stroke-miterlimit="10" stroke-width="1.3612669416666667" stroke-dasharray=""/><g transform="translate(724.4517647416667,1634.990498297) translate(-724.4517647416667,-1634.990498297)"><path fill="black" stroke="none" paint-order="stroke fill markers" d=" M 738.0644341583334 1628.1841635886667 L 724.4517647416667 1634.990498297 L 738.0644341583334 1641.7968330053332 Z"/></g></g><g><g><rect fill="white" stroke="none" x="795.7170060557955" y="1659.493303247" width="132.83893074097656" height="21.23576429"/></g><text fill="black" stroke="none" font-family="sans-serif" font-size="11pt" font-style="normal" font-weight="normal" text-decoration="normal" x="798.1672865507956" y="1674.1949862170002" text-anchor="start" dominant-baseline="alphabetic" xml:space="preserve">Added Successfully</text></g><g><path fill="none" stroke="black" paint-order="fill stroke markers" d=" M 724.4517647416667 1680.729067537 L 986.3718607272344 1680.729067537" stroke-miterlimit="10" stroke-width="1.3612669416666667" stroke-dasharray=""/><g transform="translate(999.8211781109011,1680.729067537) translate(-999.8211781109011,-1680.729067537)"><path fill="black" stroke="none" paint-order="stroke fill markers" d=" M 986.2085086942344 1673.9227328286668 L 999.8211781109011 1680.729067537 L 986.2085086942344 1687.5354022453332 Z"/></g></g><g><g><rect fill="white" stroke="none" x="1178.8904809883093" y="1705.2318724870001" width="77.95709480347656" height="21.23576429"/></g><text fill="black" stroke="none" font-family="sans-serif" font-size="11pt" font-style="normal" font-weight="normal" text-decoration="normal" x="1181.3407614833093" y="1719.9335554570002" text-anchor="start" dominant-baseline="alphabetic" xml:space="preserve">View Order</text></g><g><path fill="none" stroke="black" paint-order="fill stroke markers" d=" M 1294.220221708194 1726.467636777 L 1154.9671524555679 1726.467636777" stroke-miterlimit="10" stroke-width="1.3612669416666667" stroke-dasharray=""/><g transform="translate(1141.5178350719011,1726.467636777) translate(-1141.5178350719011,-1726.467636777)"><path fill="black" stroke="none" paint-order="stroke fill markers" d=" M 1155.1305044885678 1719.6613020686668 L 1141.5178350719011 1726.467636777 L 1155.1305044885678 1733.2739714853333 Z"/></g></g><g><g><rect fill="white" stroke="none" x="1172.644959442899" y="1750.9704417270002" width="90.44813789429688" height="21.23576429"/></g><text fill="black" stroke="none" font-family="sans-serif" font-size="11pt" font-style="normal" font-weight="normal" text-decoration="normal" x="1175.0952399378991" y="1765.6721246970003" text-anchor="start" dominant-baseline="alphabetic" xml:space="preserve">Show Orders</text></g><g><path fill="none" stroke="black" paint-order="fill stroke markers" d=" M 1141.5178350719011 1772.206206017 L 1280.7709043245272 1772.206206017" stroke-miterlimit="10" stroke-width="1.3612669416666667" stroke-dasharray=""/><g transform="translate(1294.220221708194,1772.206206017) translate(-1294.220221708194,-1772.206206017)"><path fill="black" stroke="none" paint-order="stroke fill markers" d=" M 1280.6075522915273 1765.399871308667 L 1294.220221708194 1772.206206017 L 1280.6075522915273 1779.0125407253333 Z"/></g></g><g><g/><path fill="none" stroke="black" paint-order="fill stroke markers" d=" M 16.335203299999996 365.745201887 L 800.8491461253255 365.745201887 L 800.8491461253255 614.040292047 L 16.335203299999996 614.040292047 L 16.335203299999996 365.745201887 Z" stroke-miterlimit="10" stroke-width="2.3336004714285714" stroke-dasharray=""/><path fill="white" stroke="black" paint-order="fill stroke markers" d=" M 16.335203299999996 365.745201887 L 16.335203299999996 385.347445847 L 67.25925675058593 385.347445847 L 77.06037873058594 375.546323867 L 77.06037873058594 365.745201887 L 16.335203299999996 365.745201887" stroke-miterlimit="10" stroke-width="2.3336004714285714" stroke-dasharray=""/><text fill="black" stroke="none" font-family="sans-serif" font-size="8.8pt" font-style="normal" font-weight="bold" text-decoration="normal" x="32.67040659999999" y="378.81336452700003" text-anchor="start" dominant-baseline="alphabetic" xml:space="preserve">par</text><text fill="black" stroke="none" font-family="sans-serif" font-size="8.8pt" font-style="normal" font-weight="bold" text-decoration="normal" x="93.39558203058594" y="378.81336452700003" text-anchor="start" dominant-baseline="alphabetic" xml:space="preserve">[Till User Search]</text></g><g><g/><path fill="none" stroke="black" paint-order="fill stroke markers" d=" M 16.335203299999996 888.4717074869997 L 932.9077210150052 888.4717074869997 L 932.9077210150052 1430.8004570469998 L 16.335203299999996 1430.8004570469998 L 16.335203299999996 888.4717074869997 Z" stroke-miterlimit="10" stroke-width="2.3336004714285714" stroke-dasharray=""/><path fill="white" stroke="black" paint-order="fill stroke markers" d=" M 16.335203299999996 888.4717074869997 L 16.335203299999996 908.0739514469997 L 62.69440689707031 908.0739514469997 L 72.49552887707031 898.2728294669996 L 72.49552887707031 888.4717074869997 L 16.335203299999996 888.4717074869997" stroke-miterlimit="10" stroke-width="2.3336004714285714" stroke-dasharray=""/><text fill="black" stroke="none" font-family="sans-serif" font-size="8.8pt" font-style="normal" font-weight="bold" text-decoration="normal" x="32.67040659999999" y="901.5398701269996" text-anchor="start" dominant-baseline="alphabetic" xml:space="preserve">alt</text><text fill="black" stroke="none" font-family="sans-serif" font-size="8.8pt" font-style="normal" font-weight="bold" text-decoration="normal" x="88.83073217707032" y="901.5398701269996" text-anchor="start" dominant-baseline="alphabetic" xml:space="preserve">[case 1: Debit Card]</text><g><path fill="none" stroke="black" paint-order="fill stroke markers" d=" M 16.335203299999996 1182.5053668869998 L 932.9077210150052 1182.5053668869998" stroke-miterlimit="10" stroke-width="2.3336004714285714" stroke-dasharray="4.083800825"/></g><g/><text fill="black" stroke="none" font-family="sans-serif" font-size="8.8pt" font-style="normal" font-weight="bold" text-decoration="normal" x="88.83073217707032" y="1195.5735295269997" text-anchor="start" dominant-baseline="alphabetic" xml:space="preserve">[case 2 : Mkash]</text></g><g/></g><g/><g/><g/><g/><g/><g/><g/></g></svg>